<svg viewBox="0 0 660.025 180.573" class="navbar-brand max-width-200 m-0" xmlns="http://www.w3.org/2000/svg">
  <defs>
    <linearGradient gradientUnits="userSpaceOnUse" x1="262.589" y1="36.573" x2="262.589" y2="143.54" id="gradient-main" gradientTransform="matrix(-0.006265, -0.999981, 3.911776, -0.024512, 70.11035, 349.244349)">
      <stop offset="0" style="stop-color: red" />
      <stop offset="1" style="stop-color: yellow" />
    </linearGradient>
  </defs>
  <g>
    <path d="M 39.768 143.54 C 34.032 143.54 28.89 141.916 24.341 138.668 C 19.792 135.426 16.217 130.916 13.615 125.139 C 11.013 119.362 9.712 112.704 9.712 105.166 C 9.712 97.529 11.013 90.846 13.615 85.119 C 16.217 79.391 19.792 74.928 24.341 71.729 C 28.89 68.531 34.032 66.931 39.768 66.931 C 45.046 66.931 49.769 68.41 53.935 71.367 C 58.102 74.33 61.429 78.65 63.916 84.329 C 66.4 90.007 67.641 96.953 67.641 105.166 C 67.641 113.28 66.42 120.201 63.976 125.929 C 61.528 131.657 58.218 136.024 54.047 139.03 C 49.881 142.037 45.121 143.54 39.768 143.54 Z M 40.341 134.52 C 44.626 134.52 48.47 133.302 51.872 130.867 C 55.274 128.431 57.95 124.993 59.902 120.555 C 61.853 116.116 62.829 110.987 62.829 105.166 C 62.829 99.246 61.853 94.092 59.902 89.702 C 57.95 85.308 55.274 81.893 51.872 79.457 C 48.47 77.026 44.626 75.811 40.341 75.811 C 36.135 75.811 32.351 77.026 28.989 79.457 C 25.622 81.893 22.945 85.308 20.959 89.702 C 18.968 94.092 17.972 99.246 17.972 105.166 C 17.972 110.987 18.968 116.116 20.959 120.555 C 22.945 124.993 25.622 128.431 28.989 130.867 C 32.351 133.302 36.135 134.52 40.341 134.52 Z M 63.053 142.824 L 63.053 120.201 L 63.857 105.018 L 62.71 89.842 L 62.71 36.573 L 70.859 36.573 L 70.859 142.824 L 63.053 142.824 Z M 93.564 142.824 L 93.564 67.647 L 101.712 67.647 L 101.712 142.824 L 93.564 142.824 Z M 97.697 51.04 C 96.014 51.04 94.599 50.324 93.452 48.892 C 92.304 47.46 91.731 45.74 91.731 43.732 C 91.731 41.73 92.304 40.035 93.452 38.646 C 94.599 37.264 96.014 36.573 97.697 36.573 C 99.381 36.573 100.796 37.242 101.943 38.581 C 103.09 39.914 103.664 41.584 103.664 43.592 C 103.664 45.694 103.108 47.46 101.996 48.892 C 100.888 50.324 99.455 51.04 97.697 51.04 Z M 140.596 143.54 C 135.625 143.54 130.922 142.657 126.487 140.89 C 122.053 139.124 118.574 136.904 116.051 134.232 L 119.717 126.217 C 122.165 128.505 125.301 130.485 129.124 132.159 C 132.948 133.826 136.963 134.66 141.169 134.66 C 146.905 134.66 151.034 133.538 153.557 131.294 C 156.084 129.051 157.347 126.069 157.347 122.349 C 157.347 119.578 156.64 117.406 155.225 115.831 C 153.809 114.257 151.955 113.063 149.66 112.251 C 147.366 111.439 144.804 110.748 141.973 110.178 C 139.143 109.601 136.332 108.932 133.541 108.17 C 130.75 107.407 128.208 106.285 125.914 104.804 C 123.619 103.328 121.765 101.301 120.35 98.722 C 118.934 96.143 118.227 92.706 118.227 88.41 C 118.227 84.307 119.145 80.631 120.982 77.383 C 122.815 74.14 125.512 71.587 129.072 69.721 C 132.627 67.861 136.965 66.931 142.085 66.931 C 145.988 66.931 149.889 67.576 153.787 68.865 C 157.69 70.155 160.903 71.85 163.426 73.951 L 159.866 82.107 C 157.189 79.819 154.321 78.173 151.262 77.169 C 148.203 76.165 145.144 75.663 142.085 75.663 C 136.658 75.663 132.662 76.834 130.1 79.177 C 127.538 81.514 126.257 84.496 126.257 88.122 C 126.257 90.986 126.964 93.23 128.379 94.854 C 129.795 96.478 131.669 97.743 134.003 98.648 C 136.332 99.553 138.895 100.294 141.69 100.87 C 144.481 101.441 147.272 102.132 150.063 102.944 C 152.853 103.756 155.416 104.853 157.75 106.236 C 160.079 107.624 161.951 109.582 163.366 112.111 C 164.782 114.641 165.489 117.957 165.489 122.061 C 165.489 126.45 164.514 130.244 162.562 133.442 C 160.615 136.641 157.787 139.124 154.077 140.89 C 150.368 142.657 145.874 143.54 140.596 143.54 Z M 199.441 143.54 C 193.785 143.54 189.427 141.631 186.368 137.812 C 183.309 133.994 181.78 128.601 181.78 121.633 L 181.78 51.04 L 189.922 51.04 L 189.922 121.057 C 189.922 125.452 190.82 128.842 192.618 131.229 C 194.416 133.615 196.996 134.808 200.358 134.808 C 203.953 134.808 206.937 133.519 209.311 130.941 L 212.178 138.24 C 210.57 140.056 208.638 141.392 206.383 142.248 C 204.129 143.109 201.815 143.54 199.441 143.54 Z M 170.994 76.099 L 170.994 67.647 L 208.276 67.647 L 208.276 76.099 L 170.994 76.099 Z M 226.972 142.824 L 226.972 67.647 L 234.771 67.647 L 234.771 88.122 L 233.967 84.543 C 235.65 78.815 238.481 74.448 242.458 71.441 C 246.436 68.435 251.367 66.931 257.252 66.931 L 257.252 76.815 C 256.949 76.815 256.644 76.79 256.336 76.741 C 256.033 76.692 255.727 76.667 255.42 76.667 C 249.073 76.667 244.102 79.078 240.507 83.901 C 236.912 88.723 235.114 95.573 235.114 104.45 L 235.114 142.824 L 226.972 142.824 Z M 272.053 142.824 L 272.053 67.647 L 280.195 67.647 L 280.195 142.824 L 272.053 142.824 Z M 276.18 51.04 C 274.496 51.04 273.081 50.324 271.934 48.892 C 270.787 47.46 270.213 45.74 270.213 43.732 C 270.213 41.73 270.787 40.035 271.934 38.646 C 273.081 37.264 274.496 36.573 276.18 36.573 C 277.863 36.573 279.278 37.242 280.425 38.581 C 281.573 39.914 282.146 41.584 282.146 43.592 C 282.146 45.694 281.592 47.46 280.485 48.892 C 279.373 50.324 277.938 51.04 276.18 51.04 Z M 333.997 143.54 C 328.719 143.54 323.976 142.037 319.77 139.03 C 315.564 136.024 312.237 131.657 309.789 125.929 C 307.341 120.201 306.117 113.28 306.117 105.166 C 306.117 96.953 307.361 90.007 309.848 84.329 C 312.332 78.65 315.676 74.33 319.882 71.367 C 324.088 68.41 328.793 66.931 333.997 66.931 C 339.733 66.931 344.875 68.531 349.424 71.729 C 353.973 74.928 357.548 79.391 360.15 85.119 C 362.748 90.846 364.046 97.529 364.046 105.166 C 364.046 112.704 362.748 119.362 360.15 125.139 C 357.548 130.916 353.973 135.426 349.424 138.668 C 344.875 141.916 339.733 143.54 333.997 143.54 Z M 302.906 142.824 L 302.906 36.573 L 311.055 36.573 L 311.055 89.842 L 309.908 105.018 L 310.705 120.201 L 310.705 142.824 L 302.906 142.824 Z M 333.424 134.52 C 337.704 134.52 341.528 133.302 344.895 130.867 C 348.257 128.431 350.934 124.993 352.925 120.555 C 354.911 116.116 355.905 110.987 355.905 105.166 C 355.905 99.246 354.911 94.092 352.925 89.702 C 350.934 85.308 348.257 81.893 344.895 79.457 C 341.528 77.026 337.704 75.811 333.424 75.811 C 329.138 75.811 325.295 77.026 321.893 79.457 C 318.491 81.893 315.815 85.308 313.863 89.702 C 311.912 94.092 310.936 99.246 310.936 105.166 C 310.936 110.987 311.912 116.116 313.863 120.555 C 315.815 124.993 318.491 128.431 321.893 130.867 C 325.295 133.302 329.138 134.52 333.424 134.52 Z M 405.231 143.54 C 399.416 143.54 394.197 141.894 389.573 138.602 C 384.945 135.305 381.293 130.771 378.616 124.999 C 375.94 119.222 374.601 112.611 374.601 105.166 C 374.601 97.622 375.94 90.986 378.616 85.259 C 381.293 79.531 384.925 75.046 389.514 71.803 C 394.102 68.555 399.341 66.931 405.231 66.931 C 411.195 66.931 416.491 68.555 421.119 71.803 C 425.743 75.046 429.375 79.531 432.017 85.259 C 434.654 90.986 435.972 97.622 435.972 105.166 C 435.972 112.611 434.654 119.222 432.017 124.999 C 429.375 130.771 425.723 135.305 421.06 138.602 C 416.392 141.894 411.116 143.54 405.231 143.54 Z M 405.231 134.52 C 409.586 134.52 413.447 133.302 416.814 130.867 C 420.181 128.431 422.837 124.993 424.784 120.555 C 426.736 116.116 427.712 110.987 427.712 105.166 C 427.712 99.246 426.736 94.092 424.784 89.702 C 422.837 85.308 420.181 81.893 416.814 79.457 C 413.447 77.026 409.624 75.811 405.343 75.811 C 401.062 75.811 397.238 77.026 393.872 79.457 C 390.505 81.893 387.828 85.308 385.842 89.702 C 383.855 94.092 382.862 99.246 382.862 105.166 C 382.862 110.987 383.855 116.116 385.842 120.555 C 387.828 124.993 390.505 128.431 393.872 130.867 C 397.238 133.302 401.025 134.52 405.231 134.52 Z M 452.599 142.824 L 452.599 36.573 L 460.747 36.573 L 460.747 142.824 L 452.599 142.824 Z M 502.729 143.54 C 497.073 143.54 492.715 141.631 489.656 137.812 C 486.597 133.994 485.068 128.601 485.068 121.633 L 485.068 51.04 L 493.209 51.04 L 493.209 121.057 C 493.209 125.452 494.108 128.842 495.906 131.229 C 497.703 133.615 500.283 134.808 503.646 134.808 C 507.241 134.808 510.225 133.519 512.598 130.941 L 515.466 138.24 C 513.858 140.056 511.926 141.392 509.671 142.248 C 507.417 143.109 505.103 143.54 502.729 143.54 Z M 474.282 76.099 L 474.282 67.647 L 511.563 67.647 L 511.563 76.099 L 474.282 76.099 Z" style="white-space: pre; fill: url(&quot;#gradient-main&quot;);" />
    <path d="M 622.042 33.901 L 539.228 69.393 L 589.664 85.582 L 544.832 138.508 L 652.553 65.657 L 600.871 62.543 L 622.042 33.901 Z" style="fill: url(&quot;#gradient-main&quot;);" />
  </g>
</svg>