<svg viewBox="0 0 4096 4096" xmlns="http://www.w3.org/2000/svg" xmlns:xlink="http://www.w3.org/1999/xlink" xmlns:bx="https://boxy-svg.com">
  <defs>
    <linearGradient id="gradient-2" >
      <stop offset="0" style="stop-color: rgb(38, 38, 38);" />
      <stop offset="1" style="stop-color: rgb(201, 12, 12);" />
    </linearGradient>
    <linearGradient id="gradient-2-0" gradientUnits="userSpaceOnUse" x1="2048" y1="1982.95" x2="2048" y2="2218.56" gradientTransform="matrix(-0.001686, -1.689683, 9.229139, -0.00921, -17461.11261, 6315.228516)" xlink:href="#gradient-2" />
    <linearGradient id="gradient-2-1" gradientUnits="userSpaceOnUse" x1="2048" y1="1096.513" x2="2048" y2="1784.229" gradientTransform="matrix(0.01958, -1.940199, 2.528954, 0.025521, -1671.997253, 5641.701172)" xlink:href="#gradient-2" />
  </defs>
  <rect width="4096" height="4096" style="fill: rgb(38, 38, 38);" />
  <path style="fill: url(#gradient-2-1);" d="M 2741.272 1000.475 L 1425.395 1434.491 L 2004.279 1824.702 L 1354.729 2334.849 L 2697.039 1951.555 L 2084.914 1553.999 L 2741.272 1000.475 Z" />
  <path style="fill: url(#gradient-2-0);" d="M 1218.71 2964.139 C 1197.361 2964.139 1178.224 2958.095 1161.295 2946.007 C 1144.364 2933.941 1131.058 2917.155 1121.374 2895.656 C 1111.691 2874.155 1106.848 2849.375 1106.848 2821.32 C 1106.848 2792.896 1111.691 2768.024 1121.374 2746.71 C 1131.058 2725.391 1144.364 2708.78 1161.295 2696.875 C 1178.224 2684.972 1197.361 2679.018 1218.71 2679.018 C 1238.353 2679.018 1255.931 2684.523 1271.437 2695.528 C 1286.945 2706.555 1299.327 2722.634 1308.583 2743.77 C 1317.829 2764.901 1322.447 2790.753 1322.447 2821.32 C 1322.447 2851.518 1317.903 2877.277 1308.806 2898.596 C 1299.695 2919.913 1287.378 2936.166 1271.853 2947.353 C 1256.348 2958.546 1238.632 2964.139 1218.71 2964.139 Z M 1220.843 2930.57 C 1236.79 2930.57 1251.097 2926.036 1263.759 2916.973 C 1276.42 2907.908 1286.379 2895.112 1293.645 2878.595 C 1300.905 2862.073 1304.538 2842.985 1304.538 2821.32 C 1304.538 2799.286 1300.905 2780.105 1293.645 2763.766 C 1286.379 2747.413 1276.42 2734.703 1263.759 2725.636 C 1251.097 2716.59 1236.79 2712.067 1220.843 2712.067 C 1205.19 2712.067 1191.106 2716.59 1178.592 2725.636 C 1166.062 2734.703 1156.099 2747.413 1148.707 2763.766 C 1141.298 2780.105 1137.59 2799.286 1137.59 2821.32 C 1137.59 2842.985 1141.298 2862.073 1148.707 2878.595 C 1156.099 2895.112 1166.062 2907.908 1178.592 2916.973 C 1191.106 2926.036 1205.19 2930.57 1220.843 2930.57 Z M 1305.371 2961.474 L 1305.371 2877.277 L 1308.363 2820.769 L 1304.095 2764.288 L 1304.095 2566.032 L 1334.423 2566.032 L 1334.423 2961.474 L 1305.371 2961.474 Z M 1418.926 2961.474 L 1418.926 2681.683 L 1449.251 2681.683 L 1449.251 2961.474 L 1418.926 2961.474 Z M 1434.309 2619.876 C 1428.045 2619.876 1422.779 2617.211 1418.511 2611.88 C 1414.237 2606.551 1412.105 2600.15 1412.105 2592.677 C 1412.105 2585.225 1414.237 2578.918 1418.511 2573.747 C 1422.779 2568.604 1428.045 2566.032 1434.309 2566.032 C 1440.576 2566.032 1445.843 2568.523 1450.111 2573.506 C 1454.381 2578.467 1456.517 2584.681 1456.517 2592.155 C 1456.517 2599.978 1454.447 2606.551 1450.309 2611.88 C 1446.184 2617.211 1440.852 2619.876 1434.309 2619.876 Z M 1593.969 2964.139 C 1575.469 2964.139 1557.965 2960.852 1541.459 2954.276 C 1524.956 2947.703 1512.008 2939.442 1502.618 2929.497 L 1516.262 2899.667 C 1525.373 2908.183 1537.045 2915.552 1551.273 2921.782 C 1565.505 2927.986 1580.448 2931.09 1596.102 2931.09 C 1617.451 2931.09 1632.817 2926.915 1642.208 2918.563 C 1651.613 2910.214 1656.313 2899.116 1656.313 2885.271 C 1656.313 2874.959 1653.681 2866.874 1648.416 2861.012 C 1643.146 2855.154 1636.245 2850.71 1627.704 2847.689 C 1619.166 2844.666 1609.631 2842.095 1599.094 2839.974 C 1588.562 2837.826 1578.1 2835.336 1567.711 2832.501 C 1557.325 2829.66 1547.864 2825.485 1539.326 2819.973 C 1530.785 2814.48 1523.884 2806.936 1518.618 2797.337 C 1513.348 2787.739 1510.717 2774.946 1510.717 2758.959 C 1510.717 2743.687 1514.133 2730.006 1520.97 2717.918 C 1527.793 2705.849 1537.829 2696.346 1551.08 2689.401 C 1564.31 2682.479 1580.455 2679.018 1599.511 2679.018 C 1614.038 2679.018 1628.555 2681.419 1643.063 2686.216 C 1657.589 2691.016 1669.547 2697.326 1678.937 2705.144 L 1665.688 2735.499 C 1655.725 2726.985 1645.05 2720.858 1633.665 2717.122 C 1622.282 2713.385 1610.896 2711.516 1599.511 2711.516 C 1579.313 2711.516 1564.44 2715.875 1554.905 2724.596 C 1545.37 2733.292 1540.602 2744.39 1540.602 2757.886 C 1540.602 2768.546 1543.235 2776.896 1548.5 2782.94 C 1553.77 2788.984 1560.745 2793.694 1569.432 2797.061 C 1578.1 2800.43 1587.638 2803.188 1598.041 2805.33 C 1608.428 2807.456 1618.816 2810.028 1629.204 2813.051 C 1639.587 2816.072 1649.126 2820.156 1657.812 2825.302 C 1666.48 2830.468 1673.449 2837.755 1678.714 2847.167 C 1683.984 2856.584 1686.616 2868.925 1686.616 2884.2 C 1686.616 2900.534 1682.987 2914.655 1675.721 2926.557 C 1668.476 2938.462 1657.951 2947.703 1644.143 2954.276 C 1630.338 2960.852 1613.613 2964.139 1593.969 2964.139 Z M 1812.978 2964.139 C 1791.928 2964.139 1775.707 2957.035 1764.323 2942.822 C 1752.938 2928.611 1747.247 2908.54 1747.247 2882.606 L 1747.247 2619.876 L 1777.55 2619.876 L 1777.55 2880.462 C 1777.55 2896.82 1780.892 2909.437 1787.583 2918.321 C 1794.275 2927.201 1803.877 2931.641 1816.391 2931.641 C 1829.77 2931.641 1840.876 2926.844 1849.711 2917.248 L 1860.382 2944.413 C 1854.397 2951.172 1847.206 2956.145 1838.815 2959.332 C 1830.425 2962.535 1821.813 2964.139 1812.978 2964.139 Z M 1707.104 2713.14 L 1707.104 2681.683 L 1845.859 2681.683 L 1845.859 2713.14 L 1707.104 2713.14 Z M 1915.442 2961.474 L 1915.442 2681.683 L 1944.467 2681.683 L 1944.467 2757.886 L 1941.475 2744.566 C 1947.738 2723.247 1958.275 2706.994 1973.077 2695.803 C 1987.882 2684.616 2006.234 2679.018 2028.137 2679.018 L 2028.137 2715.804 C 2027.008 2715.804 2025.875 2715.711 2024.727 2715.529 C 2023.6 2715.346 2022.461 2715.253 2021.319 2715.253 C 1997.696 2715.253 1979.195 2724.226 1965.816 2742.177 C 1952.436 2760.123 1945.745 2785.617 1945.745 2818.655 L 1945.745 2961.474 L 1915.442 2961.474 Z M 2083.222 2961.474 L 2083.222 2681.683 L 2113.525 2681.683 L 2113.525 2961.474 L 2083.222 2961.474 Z M 2098.583 2619.876 C 2092.315 2619.876 2087.05 2617.211 2082.78 2611.88 C 2078.512 2606.551 2076.374 2600.15 2076.374 2592.677 C 2076.374 2585.225 2078.512 2578.918 2082.78 2573.747 C 2087.05 2568.604 2092.315 2566.032 2098.583 2566.032 C 2104.847 2566.032 2110.112 2568.523 2114.382 2573.506 C 2118.653 2578.467 2120.787 2584.681 2120.787 2592.155 C 2120.787 2599.978 2118.724 2606.551 2114.605 2611.88 C 2110.467 2617.211 2105.126 2619.876 2098.583 2619.876 Z M 2313.765 2964.139 C 2294.12 2964.139 2276.468 2958.546 2260.815 2947.353 C 2245.162 2936.166 2232.778 2919.913 2223.667 2898.596 C 2214.557 2877.277 2210.001 2851.518 2210.001 2821.32 C 2210.001 2790.753 2214.631 2764.901 2223.887 2743.77 C 2233.133 2722.634 2245.577 2706.555 2261.232 2695.528 C 2276.886 2684.523 2294.396 2679.018 2313.765 2679.018 C 2335.112 2679.018 2354.25 2684.972 2371.18 2696.875 C 2388.111 2708.78 2401.415 2725.391 2411.101 2746.71 C 2420.769 2768.024 2425.6 2792.896 2425.6 2821.32 C 2425.6 2849.375 2420.769 2874.155 2411.101 2895.656 C 2401.415 2917.155 2388.111 2933.941 2371.18 2946.007 C 2354.25 2958.095 2335.112 2964.139 2313.765 2964.139 Z M 2198.05 2961.474 L 2198.05 2566.032 L 2228.38 2566.032 L 2228.38 2764.288 L 2224.11 2820.769 L 2227.077 2877.277 L 2227.077 2961.474 L 2198.05 2961.474 Z M 2311.632 2930.57 C 2327.561 2930.57 2341.793 2926.036 2354.324 2916.973 C 2366.838 2907.908 2376.8 2895.112 2384.211 2878.595 C 2391.602 2862.073 2395.3 2842.985 2395.3 2821.32 C 2395.3 2799.286 2391.602 2780.105 2384.211 2763.766 C 2376.8 2747.413 2366.838 2734.703 2354.324 2725.636 C 2341.793 2716.59 2327.561 2712.067 2311.632 2712.067 C 2295.68 2712.067 2281.377 2716.59 2268.716 2725.636 C 2256.055 2734.703 2246.094 2747.413 2238.831 2763.766 C 2231.568 2780.105 2227.937 2799.286 2227.937 2821.32 C 2227.937 2842.985 2231.568 2862.073 2238.831 2878.595 C 2246.094 2895.112 2256.055 2907.908 2268.716 2916.973 C 2281.377 2926.036 2295.68 2930.57 2311.632 2930.57 Z M 2578.881 2964.139 C 2557.24 2964.139 2537.815 2958.014 2520.606 2945.762 C 2503.381 2933.491 2489.789 2916.616 2479.827 2895.134 C 2469.866 2873.633 2464.883 2849.029 2464.883 2821.32 C 2464.883 2793.242 2469.866 2768.546 2479.827 2747.231 C 2489.789 2725.912 2503.307 2709.219 2520.386 2697.15 C 2537.462 2685.062 2556.961 2679.018 2578.881 2679.018 C 2601.079 2679.018 2620.789 2685.062 2638.013 2697.15 C 2655.223 2709.219 2668.74 2725.912 2678.573 2747.231 C 2688.388 2768.546 2693.293 2793.242 2693.293 2821.32 C 2693.293 2849.029 2688.388 2873.633 2678.573 2895.134 C 2668.74 2916.616 2655.149 2933.491 2637.794 2945.762 C 2620.42 2958.014 2600.785 2964.139 2578.881 2964.139 Z M 2578.881 2930.57 C 2595.09 2930.57 2609.459 2926.036 2621.99 2916.973 C 2634.523 2907.908 2644.407 2895.112 2651.653 2878.595 C 2658.918 2862.073 2662.551 2842.985 2662.551 2821.32 C 2662.551 2799.286 2658.918 2780.105 2651.653 2763.766 C 2644.407 2747.413 2634.523 2734.703 2621.99 2725.636 C 2609.459 2716.59 2595.231 2712.067 2579.299 2712.067 C 2563.365 2712.067 2549.133 2716.59 2536.605 2725.636 C 2524.075 2734.703 2514.112 2747.413 2506.72 2763.766 C 2499.324 2780.105 2495.629 2799.286 2495.629 2821.32 C 2495.629 2842.985 2499.324 2862.073 2506.72 2878.595 C 2514.112 2895.112 2524.075 2907.908 2536.605 2916.973 C 2549.133 2926.036 2563.228 2930.57 2578.881 2930.57 Z M 2755.174 2961.474 L 2755.174 2566.032 L 2785.499 2566.032 L 2785.499 2961.474 L 2755.174 2961.474 Z M 2941.748 2964.139 C 2920.698 2964.139 2904.477 2957.035 2893.093 2942.822 C 2881.708 2928.611 2876.017 2908.54 2876.017 2882.606 L 2876.017 2619.876 L 2906.317 2619.876 L 2906.317 2880.462 C 2906.317 2896.82 2909.662 2909.437 2916.354 2918.321 C 2923.041 2927.201 2932.644 2931.641 2945.161 2931.641 C 2958.54 2931.641 2969.646 2926.844 2978.478 2917.248 L 2989.152 2944.413 C 2983.167 2951.172 2975.976 2956.145 2967.583 2959.332 C 2959.195 2962.535 2950.583 2964.139 2941.748 2964.139 Z M 2835.874 2713.14 L 2835.874 2681.683 L 2974.626 2681.683 L 2974.626 2713.14 L 2835.874 2713.14 Z" />
</svg>